<svg width="79" height="24" viewBox="0 0 79 24" fill="none" xmlns="http://www.w3.org/2000/svg">
<g clip-path="url(#clip0_283_331)">
<path d="M30.1729 23.5571C27.6326 23.5571 25.9863 22.0727 25.9863 20.2375C25.9863 18.4021 27.6326 16.9062 30.1729 16.9062C33.0427 16.9062 34.5361 18.8099 34.1128 20.4981H26.7037C26.8448 21.8462 28.1619 22.9683 30.1964 22.9683C31.4665 22.9683 32.6896 22.4471 33.2899 21.6201L33.9132 21.813C33.2664 22.7986 31.8543 23.5571 30.1729 23.5571ZM33.4545 20.0105C33.525 18.7753 32.419 17.4837 30.1964 17.4837C28.1384 17.4837 26.8448 18.6506 26.7037 20.0105H33.4545Z" fill="white"/>
<path d="M35.5928 23.2674V14.0781H36.3571V23.2674H35.5928Z" fill="white"/>
<path d="M41.9658 23.5571C39.4256 23.5571 37.7793 22.0727 37.7793 20.2375C37.7793 18.4021 39.4256 16.9062 41.9658 16.9062C44.8357 16.9062 46.3289 18.8099 45.9057 20.4981H38.4961C38.6372 21.8462 39.9545 22.9683 41.9889 22.9683C43.259 22.9683 44.4821 22.4471 45.0823 21.6201L45.7057 21.813C45.0588 22.7986 43.6476 23.5571 41.9658 23.5571ZM45.2469 20.0105C45.3174 18.7753 44.2124 17.4837 41.9894 17.4837C39.9313 17.4837 38.6378 18.6506 38.4966 20.0105H45.2469Z" fill="white"/>
<path d="M51.636 23.5571C49.0957 23.5571 47.4375 22.0727 47.4375 20.2375C47.4375 18.4021 49.0957 16.9062 51.636 16.9062C52.4594 16.9062 53.2238 17.099 53.7765 17.3592V18.0051C53.3414 17.7444 52.6004 17.5063 51.7185 17.5063C49.578 17.5063 48.1668 18.7415 48.1668 20.237C48.1668 21.7325 49.578 22.9562 51.7185 22.9562C52.6004 22.9562 53.2473 22.707 53.7765 22.4125V23.0809C53.1768 23.364 52.4474 23.5571 51.636 23.5571Z" fill="white"/>
<path d="M58.583 14.6562V16.9792H61.0855V17.5459H58.583V23.2677H57.8066V17.5459H55.2832V16.9792H57.8066V14.7583L58.583 14.6562Z" fill="white"/>
<path d="M65.5108 17.5863C64.3462 17.5863 63.2881 18.4816 63.2881 20.317V23.2743H62.5117V17.1897H63.2176V18.6852C63.6053 17.6428 64.4642 16.9062 65.7108 16.9062C66.4636 16.9062 67.087 17.1555 67.5692 17.5183L67.2516 18.1416C66.7223 17.7565 66.0986 17.5863 65.5108 17.5863Z" fill="white"/>
<path d="M69.5429 15.1953C69.8016 15.1953 70.0251 15.3992 70.0251 15.6373C70.0251 15.8754 69.8016 16.0792 69.5429 16.0792C69.2843 16.0792 69.0371 15.8754 69.0371 15.6373C69.0371 15.3992 69.2727 15.1953 69.5429 15.1953ZM69.1551 23.2738V17.1893H69.9196V23.2738H69.1551Z" fill="white"/>
<path d="M76.764 23.5571C74.2238 23.5571 72.5654 22.0727 72.5654 20.2375C72.5654 18.4021 74.2238 16.9062 76.764 16.9062C77.5874 16.9062 78.3517 17.099 78.9045 17.3592V18.0051C78.4693 17.7444 77.7285 17.5063 76.8465 17.5063C74.706 17.5063 73.2948 18.7415 73.2948 20.237C73.2948 21.7325 74.706 22.9562 76.8465 22.9562C77.7285 22.9562 78.3752 22.707 78.9045 22.4125V23.0809C78.3047 23.364 77.5758 23.5571 76.764 23.5571Z" fill="white"/>
<path d="M44.6488 1.2912L45.454 2.54051C45.8595 3.16967 46.5603 3.54493 47.3284 3.54493H48.0576L45.4695 0H43.8911L41.2324 3.54536H43.2021L44.6488 1.2912Z" fill="white"/>
<path d="M6.07901 5.93304C2.88265 5.68728 2.4053 4.50251 2.4053 3.81822C2.4053 2.84886 3.4882 1.87096 5.90688 1.87096C8.32556 1.87096 9.49409 2.99973 9.64492 4.04817L9.66311 4.17426L11.3831 4.058L11.3711 3.92038C11.2136 2.13125 9.28114 0.320312 5.8918 0.320312C2.88397 0.320312 0.701307 1.79145 0.701307 3.81822C0.701307 5.845 2.63421 7.06866 6.00359 7.30161C8.61836 7.49608 9.94393 8.23806 9.94393 9.50703C9.94393 10.776 8.20534 11.7582 5.98541 11.7582C4.39321 11.7582 3.00864 11.2568 2.28108 10.417C1.74118 9.79297 0.97769 9.42882 0.186694 9.41771L0.0234375 9.41514L0.0447317 9.57157C0.350394 11.8073 2.73758 13.3088 5.98541 13.3088C9.23324 13.3088 11.6475 11.6035 11.6475 9.50703C11.6475 8.0423 10.6812 6.23351 6.07901 5.93304Z" fill="white"/>
<path d="M21.531 4.85156L17.7796 10.8144L13.7115 4.85156H11.8008L16.9087 12.5205L14.8042 16.0048H15.5872C16.1869 16.0048 16.75 15.6958 17.0564 15.1987L23.4279 4.85199L21.531 4.85156Z" fill="white"/>
<path d="M28.0273 8.22323C26.4667 8.19416 25.5349 7.77232 25.5349 7.09487C25.5349 6.5153 26.2412 5.89086 27.7926 5.89086C29.03 5.89086 30.1988 6.17209 31.084 6.68242L31.2977 6.80594V5.46003L31.2329 5.41985C30.2073 4.78516 28.9891 4.47656 27.5091 4.47656C25.177 4.47656 23.9566 5.74811 23.9566 7.00383C23.9566 8.49121 25.4388 9.44263 27.8236 9.48579C29.435 9.52853 30.2863 9.92901 30.2863 10.6445C30.2863 11.2356 29.4176 11.8639 27.8081 11.8639C26.7745 11.8639 25.6986 11.6519 24.7786 11.2668C24.4654 11.1352 24.1212 11.1365 23.808 11.2698C23.5391 11.3843 23.3305 11.5788 23.2054 11.8327L23.1553 11.9344L23.2498 12.0007C24.4627 12.8564 26.0771 13.3085 27.9186 13.3085C30.205 13.3085 31.8017 12.2379 31.8017 10.7052C31.8017 9.61018 31.1469 8.29077 28.0273 8.22323Z" fill="white"/>
<path d="M36.5254 1.41406L34.711 1.66197V4.39737H32.2705V5.69072H34.711V11.7403C34.711 12.6566 35.4239 13.4196 36.3692 13.5149L36.5254 13.5307V5.69029H39.0133V4.39695H36.5254V1.41406Z" fill="white"/>
<path d="M44.7814 4.47698C41.5553 4.47698 39.2139 6.33749 39.2139 8.90066C39.2139 11.4638 41.5553 13.309 44.7814 13.309C46.7817 13.309 48.6339 12.4973 49.6157 11.1907L49.7404 11.0245L49.5331 10.9783C48.8029 10.8155 48.058 10.9287 47.4366 11.2972C46.7037 11.7314 45.7778 11.9703 44.8289 11.9703C42.7584 11.9703 41.2115 10.9941 40.8877 9.48365L40.8783 9.44048H50.0766L50.1015 9.33405C50.3371 8.31127 50.0766 7.22949 49.3859 6.3657C48.4264 5.16511 46.7477 4.47698 44.7814 4.47698ZM40.8929 8.36043L40.9036 8.3164C41.2679 6.77901 42.809 5.78529 44.8293 5.78529C47.1903 5.78529 48.4413 7.06239 48.457 8.32409V8.36043H40.8929Z" fill="white"/>
<path d="M62.8572 4.47656C61.4331 4.47656 60.2974 5.0993 59.7416 6.18578L59.707 6.25373L59.6742 6.18492C59.1564 5.0993 58.0096 4.47656 56.5279 4.47656C55.1872 4.47656 54.0862 5.03947 53.5059 6.02036L53.4358 6.13876V4.85567H51.8418V11.13C51.8418 12.0554 52.5618 12.8247 53.5165 12.92L53.6723 12.9358V7.80822C53.6723 6.66533 54.6846 5.76991 55.977 5.76991C57.2693 5.76991 58.1716 6.56317 58.1716 7.65692V11.1459C58.1716 12.0626 58.8845 12.8255 59.8303 12.9205L59.986 12.9363V7.80865C59.986 6.66575 61.005 5.77033 62.3067 5.77033C63.6083 5.77033 64.5013 6.5636 64.5013 7.65734V11.1463C64.5013 12.0631 65.2142 12.826 66.1601 12.9208L66.3158 12.9366V7.65734C66.3158 5.72545 64.9578 4.47656 62.8572 4.47656Z" fill="white"/>
<path d="M78.199 6.36571C77.2394 5.16512 75.5611 4.47656 73.5949 4.47656C70.3689 4.47656 68.0273 6.33708 68.0273 8.90025C68.0273 11.4634 70.3689 13.3085 73.5949 13.3085C75.5953 13.3085 77.4475 12.4969 78.4293 11.1903L78.5539 11.024L78.3462 10.9779C77.6151 10.8159 76.8707 10.9283 76.2497 11.2967C75.5177 11.731 74.5913 11.9699 73.642 11.9699C71.5715 11.9699 70.0242 10.9941 69.7008 9.48323L69.6914 9.44007H78.8897L78.9146 9.33364C79.1506 8.31085 78.8897 7.22951 78.199 6.36571ZM69.7065 8.36L69.7167 8.31598C70.081 6.77859 71.6217 5.78486 73.642 5.78486C76.0025 5.78486 77.254 7.06196 77.2695 8.32367V8.36H69.7065Z" fill="white"/>
</g>
<defs>
<clipPath id="clip0_283_331">
<rect width="79" height="24" fill="white"/>
</clipPath>
</defs>
</svg>
